<svg xmlns="http://www.w3.org/2000/svg" xml:space="preserve" width="800" height="800" viewBox="0 0 512 512"><ellipse cx="255.988" cy="320.191" rx="145.134" ry="114.291" style="fill:#f15a24"/><path d="M129.775 187.898C85.004 172.205 61.433 123.19 77.126 78.419a85.47 85.47 0 0 1 27.804-38.964c-40.163-4.181-79.387 20.534-91.333 61.535-12.336 42.335 9.915 87.63 50.941 103.795 22.362 8.811 46.007 7.61 66.198-1.3 6.952-3.068 6.411-13.022-.766-15.519z" style="fill:#c9171d"/><path d="M123.669 85.431a63.6 63.6 0 0 0-14.602-3.248c15.504 16.712 21.477 41.23 13.412 64.239-4.172 11.902-11.529 21.774-20.781 28.999-14.859 11.604-5.032 35.481 13.64 32.877q.453-.063.909-.132c10.148-1.528 19.644-6.075 27.147-13.075 40.003-37.323 23.508-94.506-19.725-109.66m258.557 102.467c44.77-15.693 68.342-64.708 52.649-109.479a85.47 85.47 0 0 0-27.804-38.964c40.163-4.181 79.387 20.534 91.333 61.535 12.336 42.335-9.915 87.63-50.941 103.795-22.362 8.811-46.007 7.61-66.198-1.3-6.952-3.068-6.411-13.022.766-15.519z" style="fill:#c9171d"/><path d="M388.331 85.431a63.6 63.6 0 0 1 14.602-3.248c-15.504 16.712-21.477 41.23-13.412 64.239 4.172 11.902 11.529 21.774 20.781 28.999 14.859 11.604 5.032 35.481-13.64 32.877a77 77 0 0 1-.909-.132c-10.148-1.528-19.644-6.075-27.147-13.075-40.002-37.323-23.507-94.506 19.725-109.66" style="fill:#c9171d"/><circle cx="219.985" cy="162.706" r="16.225" style="fill:#f15a24"/><circle cx="291.981" cy="162.706" r="16.225" style="fill:#f15a24"/><path d="M404.072 220.29a95 95 0 0 0 11.799.749c11.925 0 23.877-2.252 35.331-6.765 22.215-8.753 40.291-25.472 50.897-47.078 10.61-21.613 12.775-46.139 6.097-69.059-13.022-44.688-55.996-73.631-102.181-68.826a10.198 10.198 0 0 0-5.261 18.152 75.44 75.44 0 0 1 24.495 34.33c9.454 26.969 2.618 57.202-16.916 77.561a53.3 53.3 0 0 1-9.186-16.304c-6.557-18.706-2.24-39.371 11.265-53.929 2.887-3.112 3.545-7.687 1.651-11.486s-5.951-6.022-10.165-5.596a74 74 0 0 0-16.939 3.77c-24.566 8.611-42.426 28.978-47.777 54.481-5.512 26.272 3.406 52.61 24.468 72.261a60.6 60.6 0 0 0 22.086 13.164c-2.467 4.614-7.244 10.959-16.473 17.538a148 148 0 0 0-2.344-1.892c-19.089-15.032-42.23-25.647-67.435-31.198l2.907-12.404c10.459-3.521 18.016-13.414 18.016-25.044 0-14.57-11.853-26.424-26.424-26.424s-26.424 11.853-26.424 26.424c0 10.184 5.794 19.035 14.256 23.445l-2.509 10.705a197 197 0 0 0-21.32-1.163c-7.193 0-14.313.398-21.323 1.163l-2.509-10.705c8.461-4.41 14.256-13.26 14.256-23.444 0-14.57-11.853-26.424-26.424-26.424s-26.424 11.853-26.424 26.424c0 11.631 7.557 21.523 18.016 25.044l2.908 12.405c-25.202 5.551-48.343 16.167-67.432 31.198-.787.62-1.561 1.249-2.331 1.881-9.218-6.575-13.991-12.916-16.456-17.527a60.6 60.6 0 0 0 22.085-13.163c21.061-19.651 29.979-45.989 24.468-72.262-5.35-25.503-23.211-45.869-47.776-54.48a74 74 0 0 0-16.939-3.77c-4.228-.43-8.273 1.797-10.165 5.596s-1.235 8.374 1.651 11.486c13.506 14.557 17.822 35.222 11.264 53.928a53.3 53.3 0 0 1-9.196 16.317c-19.58-20.365-26.412-50.461-16.908-77.571a75.43 75.43 0 0 1 24.496-34.33 10.2 10.2 0 0 0-5.261-18.153C59.8 24.505 16.826 53.449 3.805 98.136c-6.678 22.92-4.514 47.446 6.096 69.059 10.606 21.606 28.683 38.325 50.897 47.078 11.455 4.513 23.404 6.765 35.331 6.765 3.942 0 7.882-.255 11.8-.748 2.891 7.225 8.99 17.266 21.815 27.215-13.416 14.91-22.438 31.92-26.544 50.022-28.493.033-52.94-.194-64.163-11.4-5.461-5.451-8.114-13.98-8.114-26.071 0-5.633-4.566-10.199-10.199-10.199s-10.199 4.566-10.199 10.199c0 17.783 4.612 31.032 14.1 40.505 16.532 16.506 43.626 17.366 75.207 17.366l.858-.001c-.016.752-.035 1.502-.035 2.256 0 8.555 1.066 16.97 3.137 25.151-22.07.548-40.16 2.773-54.789 9.454-21.497 9.818-32.395 28.439-32.395 55.349 0 5.633 4.566 10.199 10.199 10.199s10.199-4.566 10.199-10.199c0-36.504 23.968-44.026 74.216-44.528 5.419 11.135 12.864 21.611 22.173 31.146-33.39 9.287-57.973 39.944-57.973 76.253 0 5.633 4.566 10.199 10.199 10.199s10.199-4.566 10.199-10.199c0-32.257 26.131-58.517 58.335-58.745 28.233 19.661 64.027 30.411 101.828 30.411 37.799 0 73.592-10.749 101.825-30.409 18.981.137 36.795 9.472 47.72 25.049a10.19 10.19 0 0 0 8.359 4.344c2.022 0 4.065-.601 5.847-1.85 4.611-3.234 5.728-9.595 2.493-14.206a79.33 79.33 0 0 0-43.652-30.85c9.307-9.534 16.751-20.008 22.169-31.141 50.245.503 74.212 8.026 74.212 44.528 0 5.633 4.567 10.199 10.199 10.199s10.199-4.566 10.199-10.199c0-26.908-10.9-45.53-32.397-55.349-14.628-6.68-32.716-8.905-54.785-9.454a102.3 102.3 0 0 0 3.137-25.151c0-.754-.018-1.505-.035-2.256l.854.001c31.58 0 58.678-.861 75.207-17.366 9.488-9.473 14.1-22.723 14.1-40.505 0-5.633-4.567-10.199-10.199-10.199s-10.199 4.566-10.199 10.199c0 12.091-2.655 20.619-8.114 26.071-11.222 11.205-35.669 11.431-64.158 11.4-4.105-18.095-13.122-35.101-26.532-50.008 12.844-9.954 18.947-20.003 21.839-27.231m-112.09-63.606a6.033 6.033 0 0 1 6.026 6.026c0 3.323-2.703 6.026-6.026 6.026s-6.026-2.703-6.026-6.026a6.033 6.033 0 0 1 6.026-6.026m-71.997 0a6.033 6.033 0 0 1 6.026 6.026c0 3.323-2.703 6.026-6.026 6.026s-6.026-2.703-6.026-6.026a6.033 6.033 0 0 1 6.026-6.026m224.514-81.639a96 96 0 0 0-12.538-24.143c26.523 5.759 48.688 25.617 56.65 52.942 10.812 37.104-8.905 77.276-44.888 91.454a76.5 76.5 0 0 1-17.823 4.65c3.29-8.957 1.988-18.549-3.216-26.083 11.174-11.474 19.3-25.53 23.679-41.138 5.339-19.028 4.694-38.973-1.864-57.682m-87.354 59.43c2.954-14.079 11.174-25.993 22.795-33.617-5.505 15.554-5.71 32.773-.043 48.938 4.679 13.351 13.023 24.991 24.128 33.664 4.722 3.687 3.166 8.513 2.575 9.904-.565 1.334-2.839 5.627-8.525 4.832l-.802-.116c-8.199-1.234-15.706-4.847-21.708-10.448-15.717-14.663-22.431-34.038-18.42-53.157m-225.041 15.321c5.666-16.165 5.462-33.385-.043-48.937 11.621 7.624 19.841 19.538 22.795 33.616 4.011 19.119-2.703 38.495-18.42 53.159-6.002 5.6-13.509 9.213-21.713 10.448l-.793.115c-5.682.797-7.964-3.498-8.53-4.832-.59-1.391-2.146-6.217 2.575-9.904 11.105-8.673 19.449-20.314 24.129-33.665M23.388 103.843c7.962-27.325 30.124-47.183 56.65-52.942A96 96 0 0 0 67.5 75.044c-12.118 34.57-3.309 72.968 21.811 98.823-5.197 7.527-6.501 17.108-3.221 26.058a76.6 76.6 0 0 1-17.816-4.629c-35.98-14.178-55.697-54.349-44.886-91.453m97.667 216.343c0-47.546 41.538-87.748 98.088-100.147l6.123 26.122c1.103 4.702 5.292 7.875 9.922 7.875.771 0 1.553-.088 2.337-.271 5.484-1.285 8.889-6.773 7.603-12.257l-5.771-24.622a175.4 175.4 0 0 1 33.257 0l-5.771 24.622c-1.285 5.484 2.118 10.972 7.602 12.257.783.184 1.566.271 2.337.271 4.628 0 8.819-3.173 9.922-7.875l6.123-26.123c56.553 12.397 98.092 52.6 98.092 100.147 0 57.396-60.53 104.091-134.931 104.091-74.404.001-134.933-46.695-134.933-104.09m303.629 134.581c-5.594.656-9.598 5.722-8.943 11.317.267 2.282.403 4.611.403 6.926 0 5.633 4.567 10.199 10.199 10.199s10.199-4.566 10.199-10.199c0-3.105-.183-6.233-.542-9.3-.653-5.595-5.717-9.598-11.316-8.943"/></svg>