<svg xmlns="http://www.w3.org/2000/svg" width="1000" height="1000" xmlns:v="https://vecta.io/nano"><path fill="#fff" d="M0 0h1000v1000H0z"/><path vector-effect="non-scaling-stroke" transform="matrix(15.2174 0 0 15.2174 119.5652 119.5652)" d="M25 2C12.302 2.011 2.011 12.302 2 25c.011 12.698 10.302 22.989 23 23 12.698-.011 22.989-10.302 23-23-.011-12.698-10.302-22.989-23-23zm0 2c11.61 0 21 9.39 21 21s-9.39 21-21 21S4 36.61 4 25 13.39 4 25 4zm-1.5 6c-1.417 0-2.606.567-3.373 1.43S19 13.403 19 14.5c0 .841.216 1.687.66 2.426L16.586 20H11a1 1 0 1 0 0 2h6a1 1 0 0 0 .707-.293l3.375-3.375c.729.441 1.566.672 2.418.668 1.417 0 2.606-.567 3.373-1.43S28 15.597 28 14.5s-.36-2.208-1.127-3.07S24.917 10 23.5 10zm0 2c.917 0 1.477.308 1.877.758S26 13.847 26 14.5s-.223 1.292-.623 1.742-.96.758-1.877.758c-.759 0-1.265-.217-1.646-.545a1 1 0 0 0-.291-.299A2.66 2.66 0 0 1 21 14.5c0-.653.223-1.292.623-1.742S22.583 12 23.5 12zm4.5 9a1 1 0 0 0-.707.293L21.586 27H11a1 1 0 1 0 0 2h11a1 1 0 0 0 .707-.293L28.414 23H39a1 1 0 1 0 0-2H28zm5 7a1 1 0 0 0-.707.293l-3.375 3.375c-.729-.441-1.566-.672-2.418-.668-1.417 0-2.606.567-3.373 1.43S22 34.403 22 35.5s.36 2.208 1.127 3.07S25.083 40 26.5 40s2.606-.567 3.373-1.43S31 36.597 31 35.5c0-.841-.216-1.687-.66-2.426L33.414 30H39a1 1 0 1 0 0-2h-6zm-6.5 5c.747 0 1.249.21 1.629.529a1 1 0 0 0 .32.33c.35.443.551 1.032.551 1.641 0 .653-.223 1.292-.623 1.742S27.417 38 26.5 38s-1.477-.308-1.877-.758S24 36.153 24 35.5s.223-1.292.623-1.742S25.583 33 26.5 33z"/></svg>