<svg xmlns="http://www.w3.org/2000/svg" width="512" height="512" viewBox="0 0 50 50" xmlns:v="https://vecta.io/nano"><style>@media(prefers-color-scheme: dark){path{fill:white}}</style><path d="M25 2A23.02 23.02 0 0 0 2 25a23.02 23.02 0 0 0 23 23 23.02 23.02 0 0 0 23-23A23.02 23.02 0 0 0 25 2zm0 2c11.61 0 21 9.39 21 21s-9.39 21-21 21S4 36.61 4 25 13.39 4 25 4zm-1.5 6c-1.417 0-2.606.567-3.373 1.43S19 13.403 19 14.5c0 .841.216 1.687.66 2.426L16.586 20H11a1 1 0 1 0 0 2h6a1 1 0 0 0 .707-.293l3.375-3.375A4.634 4.634 0 0 0 23.5 19c1.417 0 2.606-.567 3.373-1.43S28 15.597 28 14.5s-.36-2.208-1.127-3.07S24.917 10 23.5 10zm0 2c.917 0 1.477.308 1.877.758S26 13.847 26 14.5s-.223 1.292-.623 1.742-.96.758-1.877.758c-.759 0-1.265-.217-1.646-.545a1 1 0 0 0-.291-.299A2.661 2.661 0 0 1 21 14.5c0-.653.223-1.292.623-1.742S22.583 12 23.5 12zm4.5 9a1 1 0 0 0-.707.293L21.586 27H11a1 1 0 1 0 0 2h11a1 1 0 0 0 .707-.293L28.414 23H39a1 1 0 1 0 0-2H28zm5 7a1 1 0 0 0-.707.293l-3.375 3.375A4.634 4.634 0 0 0 26.5 31c-1.417 0-2.606.567-3.373 1.43S22 34.403 22 35.5s.36 2.208 1.127 3.07S25.083 40 26.5 40s2.606-.567 3.373-1.43S31 36.597 31 35.5c0-.841-.216-1.687-.66-2.426L33.414 30H39a1 1 0 1 0 0-2h-6zm-6.5 5c.747 0 1.249.21 1.629.529a1 1 0 0 0 .32.33c.35.443.551 1.032.551 1.641 0 .653-.223 1.292-.623 1.742S27.417 38 26.5 38s-1.477-.308-1.877-.758S24 36.153 24 35.5s.223-1.292.623-1.742S25.583 33 26.5 33z"/></svg>