<svg xmlns="http://www.w3.org/2000/svg" width="1000" height="1000"><path fill="rgba(255,255,255,0)" d="M0 0h1000v1000H0z"/><path fill="#fff" d="M566.35 185.894c0-36.644-29.705-66.35-66.35-66.35s-66.35 29.705-66.35 66.35v205.278h132.698V185.894h.002z"/><path fill="#ff7876" d="M566.35 659.494V391.169H433.652v268.323c-32.589 21.556-54.098 58.514-54.098 100.516 0 66.522 53.925 120.448 120.448 120.448S620.45 826.531 620.45 760.008c-.002-41.998-21.511-78.958-54.1-100.514z"/><path fill="#58595b" d="M585.894 649.478V185.895C585.894 138.533 547.361 100 500 100s-85.894 38.533-85.894 85.894v463.583a139.68 139.68 0 0 0-54.098 110.53C360.008 837.198 422.809 900 500 900s139.992-62.802 139.992-139.992c0-43.502-20.039-84.07-54.098-110.53zm-132.7-463.584c0-25.808 20.998-46.806 46.806-46.806s46.806 20.998 46.806 46.806v49.919h-40.304c-10.797 0-19.544 8.748-19.544 19.544s8.748 19.543 19.544 19.543h40.305v20.273h-40.305c-10.797 0-19.544 8.748-19.544 19.544s8.748 19.544 19.544 19.544h40.305v37.363h-93.613v-185.73zM500 860.913c-55.641 0-100.905-45.264-100.905-100.905 0-33.955 16.948-65.439 45.334-84.216a19.54 19.54 0 0 0 8.761-16.3v-248.78h93.613v248.78c0 6.561 3.291 12.68 8.761 16.3 28.388 18.778 45.334 50.263 45.334 84.216.007 55.64-45.257 100.905-100.898 100.905zm57.814-120.449c-10.797 0-19.544 8.748-19.544 19.544 0 21.102-17.167 38.27-38.27 38.27-10.797 0-19.544 8.748-19.544 19.544s8.749 19.544 19.544 19.544c42.655 0 77.358-34.7 77.358-77.358 0-10.794-8.75-19.544-19.544-19.544z"/></svg>