<svg xmlns="http://www.w3.org/2000/svg" width="1000" height="1000"><path fill="rgba(255,255,255,0)" d="M0 0h1000v1000H0z"/><path fill="#fff" d="M579.62 123.073c0-43.973-35.646-79.62-79.62-79.62s-79.62 35.646-79.62 79.62v246.333h159.238V123.073h.002z"/><path fill="#ff7876" d="M579.62 691.393v-321.99H420.382V691.39c-39.106 25.868-64.917 70.217-64.917 120.62 0 79.826 64.71 144.537 144.537 144.537S644.54 891.837 644.54 812.01c-.002-50.398-25.813-94.75-64.92-120.617z"/><path fill="#58595b" d="M603.073 679.374v-556.3C603.073 66.24 556.833 20 500 20S396.927 66.24 396.927 123.073v556.3a167.616 167.616 0 0 0-64.917 132.635C332.01 904.638 407.37 980 500 980s167.99-75.362 167.99-167.99c0-52.203-24.046-100.884-64.917-132.636zm-159.24-556.301c0-30.97 25.197-56.167 56.167-56.167s56.167 25.197 56.167 56.167v59.903h-48.365c-12.956 0-23.452 10.497-23.452 23.452s10.497 23.452 23.452 23.452h48.366v24.328h-48.366c-12.956 0-23.452 10.497-23.452 23.452s10.497 23.453 23.452 23.453h48.366v44.836H443.833V123.073zM500 933.096c-66.77 0-121.086-54.317-121.086-121.086 0-40.746 20.338-78.527 54.4-101.06a23.448 23.448 0 0 0 10.514-19.56V392.854h112.336V691.39a23.452 23.452 0 0 0 10.513 19.56c34.065 22.534 54.4 60.316 54.4 101.06.009 66.768-54.308 121.086-121.077 121.086zm69.377-144.54c-12.957 0-23.453 10.498-23.453 23.454 0 25.322-20.6 45.924-45.924 45.924-12.956 0-23.453 10.497-23.453 23.452S487.046 904.84 500 904.84c51.186 0 92.83-41.64 92.83-92.83 0-12.952-10.5-23.452-23.453-23.452z"/></svg>